<svg width="34" height="34" viewBox="0 0 34 34" fill="none" xmlns="http://www.w3.org/2000/svg">
<g id="fi_8363075" clip-path="url(#clip0_1_91)">
<g id="Layer 2">
<g id="United Kingdom">
<path id="Vector" d="M34 17C34 26.3861 26.3932 33.9958 17.0078 34H16.8243C16.0003 33.9914 15.1779 33.9235 14.3636 33.7967C13.6968 33.6936 13.0368 33.5503 12.3873 33.3675C8.82141 32.3612 5.68169 30.2179 3.4457 27.2635C1.20971 24.309 -0.00019963 20.7052 2.47059e-08 17C2.47059e-08 7.61246 7.60892 6.78207e-06 17 6.78207e-06H17.0078C19.3206 -0.00206218 21.6093 0.469264 23.7331 1.38497C25.8568 2.30068 27.7707 3.64138 29.3569 5.32455C32.3401 8.47978 34.0016 12.6578 34 17Z" fill="white"/>
<path id="Vector_2" d="M12.7096 11.9439V12.7089H10.2382L3.29657 6.93673C3.72565 6.35305 4.19174 5.79752 4.69199 5.27356L12.7096 11.9439Z" fill="#C8102E"/>
<path id="Vector_3" d="M30.7254 6.9679L23.8241 12.7054H21.2904V11.9957L29.3356 5.30261L29.3569 5.32457C29.8206 5.81342 30.2544 6.32979 30.656 6.87086L30.7254 6.9679Z" fill="#C8102E"/>
<path id="Vector_4" d="M12.7096 21.2897V22.0547L4.69201 28.7265C4.62118 28.6556 4.55034 28.5791 4.48376 28.5048C4.062 28.0465 3.66591 27.5653 3.2973 27.0633L10.239 21.2897H12.7096Z" fill="#C8102E"/>
<path id="Vector_5" d="M30.7261 27.0314C30.2988 27.6155 29.8346 28.1718 29.3363 28.6967L21.2904 22.003V21.2897H23.8241L30.7261 27.0314Z" fill="#C8102E"/>
<g id="Group">
<path id="Vector_6" d="M6.78936 12.709H0.546112C0.900794 11.3488 1.42431 10.0383 2.10445 8.80817L6.78936 12.709Z" fill="#012169"/>
<path id="Vector_7" d="M6.6484 21.2897L2.05415 25.1104C1.39762 23.9031 0.891177 22.62 0.546112 21.2897H6.6484Z" fill="#012169"/>
<path id="Vector_8" d="M12.7096 24.8823V33.4532C12.6019 33.4255 12.4971 33.3965 12.3873 33.366C10.1598 32.7388 8.08441 31.6617 6.28928 30.2012L12.7096 24.8823Z" fill="#012169"/>
<path id="Vector_9" d="M12.7096 0.546143V8.98239L6.38492 3.72089C8.24614 2.22918 10.4014 1.14733 12.7096 0.546143Z" fill="#012169"/>
<path id="Vector_10" d="M27.7121 3.80025L21.2904 9.12338V0.546875L21.3874 0.571667C23.7002 1.18863 25.8558 2.28903 27.7121 3.80025Z" fill="#012169"/>
<path id="Vector_11" d="M33.4538 12.7089H27.3622L31.9458 8.89526C32.6017 10.1004 33.1081 11.3811 33.4538 12.7089Z" fill="#012169"/>
<path id="Vector_12" d="M27.7667 30.1594C25.8725 31.7124 23.6642 32.8364 21.2939 33.4539V24.7747L27.7667 30.1594Z" fill="#012169"/>
<path id="Vector_13" d="M33.4539 21.2897C33.1162 22.5878 32.6252 23.8412 31.9912 25.0233L27.5039 21.2897H33.4539Z" fill="#012169"/>
</g>
<path id="Vector_14" d="M34 16.8222V17.1615C33.9927 17.9542 33.9304 18.7454 33.8137 19.5295H19.5295V33.813C18.7503 33.9292 17.9641 33.9917 17.1764 34H16.8222C16.0342 33.9919 15.2477 33.9292 14.4684 33.8123V19.5295H0.187C0.0707642 18.7494 0.00828367 17.9622 0 17.1735C0 17.0623 0 16.9504 0 16.8385C0.00732792 16.0456 0.0695741 15.2541 0.186292 14.4698H14.4705V0.187C15.2123 0.0761062 15.9604 0.0136406 16.7103 0L17.2585 0C17.9741 0.0102312 18.6884 0.0655911 19.397 0.16575L19.5295 0.185583V14.4698H33.813C33.9292 15.2487 33.9917 16.0347 34 16.8222Z" fill="#C8102E"/>
</g>
</g>
</g>
<defs>
<clipPath id="clip0_1_91">
<rect width="34" height="34" fill="white"/>
</clipPath>
</defs>
</svg>
