<svg width="34" height="34" viewBox="0 0 34 34" fill="none" xmlns="http://www.w3.org/2000/svg">
<g id="fi_197560" clip-path="url(#clip0_1_128)">
<path id="Vector" d="M17 34C26.3888 34 34 26.3888 34 17C34 7.61116 26.3888 0 17 0C7.61116 0 0 7.61116 0 17C0 26.3888 7.61116 34 17 34Z" fill="#F0F0F0"/>
<path id="Vector_2" d="M34 17C34 9.69058 29.3866 3.45935 22.913 1.05737V32.9427C29.3866 30.5406 34 24.3094 34 17Z" fill="#D80027"/>
<path id="Vector_3" d="M0 17C0 24.3094 4.61344 30.5406 11.087 32.9426V1.05737C4.61344 3.45935 0 9.69058 0 17Z" fill="#0052B4"/>
</g>
<defs>
<clipPath id="clip0_1_128">
<rect width="34" height="34" fill="white"/>
</clipPath>
</defs>
</svg>
