<svg width="34" height="34" viewBox="0 0 34 34" fill="none" xmlns="http://www.w3.org/2000/svg">
<g id="fi_197571" clip-path="url(#clip0_1_116)">
<path id="Vector" d="M1.05737 22.913C3.45935 29.3866 9.69058 34 17 34C24.3094 34 30.5406 29.3866 32.9426 22.913L17 21.4348L1.05737 22.913Z" fill="#FFDA44"/>
<path id="Vector_2" d="M17 0C9.69058 0 3.45935 4.61338 1.05737 11.087L17 12.5652L32.9426 11.0869C30.5406 4.61337 24.3094 0 17 0Z" fill="black"/>
<path id="Vector_3" d="M1.05739 11.087C0.374066 12.9286 0 14.9205 0 17C0 19.0794 0.374066 21.0714 1.05739 22.913H32.9427C33.626 21.0714 34 19.0794 34 17C34 14.9205 33.626 12.9286 32.9426 11.087H1.05739Z" fill="#D80027"/>
</g>
<defs>
<clipPath id="clip0_1_116">
<rect width="34" height="34" fill="white"/>
</clipPath>
</defs>
</svg>
