<svg width="34" height="34" viewBox="0 0 34 34" fill="none" xmlns="http://www.w3.org/2000/svg">
<g id="fi_197375" clip-path="url(#clip0_1_120)">
<path id="Vector" d="M17 34C26.3888 34 34 26.3888 34 17C34 7.61116 26.3888 0 17 0C7.61116 0 0 7.61116 0 17C0 26.3888 7.61116 34 17 34Z" fill="#D80027"/>
<g id="Group">
<path id="Vector_2" d="M9.30352 10.3461L10.7711 14.8617H15.5191L11.6809 17.6574L13.1484 22.173L9.30352 19.384L5.45859 22.173L6.93281 17.6574L3.08789 14.8617H7.83594L9.30352 10.3461Z" fill="#FFDA44"/>
<path id="Vector_3" d="M20.1543 26.3301L19.032 24.9488L17.3719 25.593L18.3348 24.0988L17.2125 22.7109L18.9324 23.1691L19.902 21.675L19.9949 23.4547L21.7215 23.9129L20.0547 24.5504L20.1543 26.3301Z" fill="#FFDA44"/>
<path id="Vector_4" d="M22.3855 22.2793L22.9168 20.5793L21.4625 19.55L23.2422 19.5234L23.7668 17.8234L24.3445 19.5101L26.1242 19.4902L24.6965 20.5527L25.2676 22.2394L23.8133 21.2101L22.3855 22.2793Z" fill="#FFDA44"/>
<path id="Vector_5" d="M25.3937 12.4777L24.6102 14.0781L25.8852 15.3199L24.1254 15.0675L23.3418 16.6613L23.0363 14.9082L21.2699 14.6558L22.8504 13.8257L22.5449 12.066L23.8199 13.3078L25.3937 12.4777Z" fill="#FFDA44"/>
<path id="Vector_6" d="M20.2008 7.63007L20.068 9.40311L21.7215 10.0738L19.9883 10.4988L19.8621 12.2785L18.9258 10.7644L17.1926 11.1894L18.3414 9.82811L17.3984 8.32069L19.052 8.99139L20.2008 7.63007Z" fill="#FFDA44"/>
</g>
</g>
<defs>
<clipPath id="clip0_1_120">
<rect width="34" height="34" fill="white"/>
</clipPath>
</defs>
</svg>
