<svg width="148" height="40" viewBox="0 0 148 40" fill="none" xmlns="http://www.w3.org/2000/svg">
<g id="CMYK_copia" clip-path="url(#clip0_1_4)">
<g id="Group">
<path id="Vector" d="M24.2643 32.6875H26.4344L27.5454 39.9171H26.4656L26.1465 37.8825H24.5423L24.2337 39.9171H23.1539L24.2649 32.6875H24.2643ZM24.6853 36.9946H26.012L25.4877 33.5865H25.2103L24.6859 36.9946H24.6853Z" fill="white"/>
<path id="Vector_2" d="M40.0723 37.3461H41.1833V37.7698C41.1833 39.1851 40.7824 40.0006 39.2497 40.0006C37.717 40.0006 37.3161 39.071 37.3161 37.7698V34.8363C37.3161 33.5351 37.717 32.6055 39.2497 32.6055C40.7824 32.6055 41.1833 33.5351 41.1833 34.8363V35.0019H40.0723V34.8363C40.0723 34.0514 40.0313 33.4934 39.2497 33.4934C38.4681 33.4934 38.4271 34.0514 38.4271 34.8363V37.7698C38.4271 38.6681 38.5915 39.1127 39.2497 39.1127C39.9079 39.1127 40.0723 38.6688 40.0723 37.7698V37.3461Z" fill="white"/>
<path id="Vector_3" d="M52.0137 32.6875H54.1838L55.2948 39.9171H54.215L53.896 37.8825H52.2918L51.9831 39.9171H50.9033L52.0143 32.6875H52.0137ZM52.4354 36.9946H53.7621L53.2378 33.5865H52.9603L52.436 36.9946H52.4354Z" fill="white"/>
<path id="Vector_4" d="M67.0505 32.6875C68.5832 32.6875 68.9841 33.6275 68.9841 34.9183V37.6863C68.9841 39.1016 68.5832 39.9171 67.0505 39.9171H65.1169V32.6875H67.0505ZM67.8737 34.919C67.8737 34.1341 67.8327 33.5865 67.0511 33.5865H66.2285V39.0292H67.0511C67.7093 39.0292 67.8737 38.5852 67.8737 37.6863V34.9183V34.919Z" fill="white"/>
<path id="Vector_5" d="M80.329 39.0292H82.4478V39.9171H79.2186V32.6875H82.4069V33.5858H80.329V35.8166H82.2834V36.7045H80.329V39.0285V39.0292Z" fill="white"/>
<path id="Vector_6" d="M97.9063 33.5761H97.6594L96.5074 39.9178H94.7284L93.5764 33.5761H93.3296V39.9178H92.2185V32.6882H94.4913L95.5711 39.0195H95.6634L96.7432 32.6882H99.016V39.9178H97.905V33.5761H97.9063Z" fill="white"/>
<path id="Vector_7" d="M109.303 39.9178V32.6882H110.414V39.9178H109.303Z" fill="white"/>
<path id="Vector_8" d="M121.347 32.6875H123.517L124.628 39.9171H123.548L123.229 37.8825H121.625L121.316 39.9171H120.236L121.347 32.6875H121.347ZM121.768 36.9946H123.095L122.571 33.5865H122.293L121.769 36.9946H121.768Z" fill="white"/>
</g>
<path id="Vector_9" d="M145.723 18.5479H148V26.1784H127.091V25.4503L137.545 13.0635L127.349 1.238V0.401611H148V5.7283H145.944L145.363 2.489H133.148L141.067 11.8523V12.965L132.208 23.5298H144.966L145.723 18.5479Z" fill="white"/>
<g id="Group_2">
<path id="Vector_10" d="M14.3065 25.8453C15.5436 25.6198 16.665 25.2286 17.6688 24.6804C18.6727 24.1321 19.4718 23.3687 20.0566 22.4C20.6414 21.4313 20.9331 20.2083 20.9331 18.7298C20.9331 17.5068 20.6212 16.4397 19.9877 15.5296C19.364 14.6294 18.507 13.9149 17.4343 13.396C16.3622 12.8777 15.144 12.5935 13.7899 12.5348V12.4657C15.4565 12.0446 16.7819 11.2818 17.7663 10.1958C18.7506 9.10971 19.247 7.74919 19.247 6.12465C19.247 5.14615 18.9936 4.21654 18.4966 3.3456C17.9995 2.47401 17.0737 1.76995 15.7385 1.22171C14.4033 0.673457 12.4742 0.399658 9.95975 0.399658H0V1.56395L2.61192 2.34689C2.82634 2.39578 3.01151 2.49356 3.14795 2.66045C3.2844 2.81691 3.35262 3.03203 3.35262 3.29605V23.2599C3.35262 23.5239 3.2844 23.739 3.14795 23.8955C3.01151 24.0519 2.82634 24.1595 2.61192 24.2286L0 24.9939V26.1784H10.5055C11.8017 26.1784 13.0687 26.0709 14.3065 25.846V25.8453ZM6.98722 2.30973H9.45296C11.5094 2.30973 13.02 2.72108 13.9744 3.5529C14.9393 4.37495 15.4169 5.71591 15.4169 7.5647C15.4169 8.96433 14.9296 10.0602 13.9647 10.8627C12.9998 11.6645 11.2651 12.0661 8.77984 12.0661H6.98657V2.30973H6.98722ZM6.98722 13.8575H10.067C12.5327 13.8575 14.2961 14.2682 15.3493 15.0902C16.4109 15.9123 16.9379 17.3406 16.9379 19.3765C16.9379 21.1086 16.4506 22.3616 15.4662 23.1341C14.4819 23.9072 13.0011 24.2892 11.0032 24.2892H6.97813V13.8569H6.98787L6.98722 13.8575Z" fill="#1D1D1B"/>
<path id="Vector_11" d="M60.3699 14.2389H58.986L58.2063 18.2513C58.1771 18.4078 58.1088 18.5649 58.0114 18.7011C57.9042 18.838 57.7677 18.9071 57.6021 18.9071H50.3705V2.65197C50.3705 2.4564 50.429 2.29017 50.546 2.16305C50.6629 2.03593 50.7994 1.94727 50.965 1.91859L53.0507 1.31167V0.401611H44.942V1.31167L46.9692 1.91859C47.1349 1.9577 47.2811 2.03593 47.3883 2.16305C47.4955 2.28039 47.5539 2.44663 47.5539 2.6624V18.1535C47.5539 18.3589 47.4955 18.5258 47.3883 18.6529C47.2713 18.78 47.1349 18.8582 46.9789 18.9078L44.9518 19.5043V20.4241H60.3784V14.2584L60.3686 14.2389H60.3699Z" fill="#1D1D1B"/>
<path id="Vector_12" d="M112.021 19.6208C113.482 20.4429 115.188 20.8536 117.147 20.8536C118.132 20.8536 119.077 20.6971 119.973 20.3744C120.87 20.0517 121.688 19.66 122.439 19.1808C123.189 18.701 123.833 18.2414 124.358 17.8007V16.1566H123.812C123.286 16.5869 122.75 17.008 122.195 17.4187C121.639 17.8203 121.025 18.1625 120.343 18.4266C119.661 18.6906 118.871 18.8281 117.984 18.8281C115.578 18.8281 113.736 18.0745 112.449 16.5869C111.163 15.0993 110.519 12.8684 110.519 9.91273C110.519 6.95701 111.104 5 112.264 3.61993C113.434 2.2405 114.934 1.54493 116.776 1.54493C117.565 1.54493 118.335 1.64271 119.086 1.83893C119.836 2.0345 120.508 2.28874 121.083 2.60231C121.239 2.69032 121.386 2.77832 121.503 2.87611C121.629 2.97389 121.697 3.08146 121.727 3.21835L122.428 6.01762H123.754V1.07621C123.228 0.919752 122.575 0.753517 121.795 0.596409C121.015 0.439953 120.226 0.293275 119.407 0.175281C118.598 0.0579387 117.858 -0.000732422 117.186 -0.000732422C115.315 -0.000732422 113.638 0.429522 112.167 1.30046C110.695 2.1714 109.525 3.39502 108.668 4.97067C107.81 6.54631 107.381 8.38597 107.381 10.4897C107.381 12.5933 107.781 14.5412 108.59 16.0875C109.399 17.6436 110.539 18.8281 112.001 19.6502" fill="#1D1D1B"/>
<path id="Vector_13" d="M98.7438 0.401611V1.31167L100.771 2.01637C100.926 2.06526 101.063 2.14349 101.19 2.26083C101.306 2.37818 101.365 2.53463 101.365 2.7302V16.0981H101.219L90.4213 0.410738H84.9935V1.32079L87.1376 1.95705C87.3033 2.00594 87.4495 2.08417 87.5567 2.20151V2.18195C87.6639 2.2993 87.7223 2.46553 87.7223 2.67088V18.0746C87.7223 18.2702 87.6736 18.4365 87.5567 18.5544C87.4495 18.6711 87.3137 18.7696 87.1376 18.8282L85.1104 19.5036V20.4234H91.9904V19.5036L89.973 18.8282C89.8171 18.7794 89.6904 18.7011 89.5734 18.5838C89.4565 18.4664 89.398 18.3002 89.398 18.0844V3.65003H89.5539L101.119 20.4234H103.022V2.72042C103.022 2.53398 103.081 2.37818 103.207 2.26018C103.324 2.14284 103.47 2.05483 103.616 2.01572L105.643 1.31101V0.401611H98.7438Z" fill="#1D1D1B"/>
<path id="Vector_14" d="M41.1385 18.9951C40.9825 18.9371 40.837 18.8289 40.7096 18.6724C40.5829 18.516 40.4855 18.3498 40.4075 18.1835L33.4937 0.401611H31.642L24.7665 18.1633C24.6197 18.5551 24.3669 18.8191 24.0063 18.9756L22.651 19.5043V20.4241H28.6831V19.5043L26.296 18.7409L28.342 13.261H34.5404L36.5085 19.1425L35.2714 19.5043V20.4241H42.5315V19.5043L41.1378 18.9951H41.1385ZM28.9664 11.6065L31.6173 4.50142L33.9947 11.6065H28.9664Z" fill="#1D1D1B"/>
<path id="Vector_15" d="M87.6905 24.9085C87.2734 24.9085 86.8939 24.9105 86.5444 24.9085H86.5437C85.9414 24.9046 85.4353 24.8844 84.9941 24.8153C84.9928 24.8153 84.9915 24.8153 84.9902 24.8153C84.5646 24.7482 84.1995 24.6334 83.8766 24.4372C83.8766 24.4372 83.8733 24.4346 83.8714 24.434C83.7291 24.3473 83.5952 24.2416 83.4666 24.1197C83.451 24.1054 83.4354 24.093 83.4198 24.078C83.373 24.0311 83.3275 23.9783 83.2814 23.9261C83.2515 23.8916 83.221 23.8583 83.1917 23.8218C83.1508 23.771 83.1105 23.7162 83.0709 23.6608C83.0378 23.6145 83.004 23.5663 82.9715 23.5161C82.9351 23.4613 82.8994 23.4033 82.8636 23.344C82.8266 23.2827 82.7909 23.2175 82.7545 23.1517C82.7233 23.0937 82.6914 23.0363 82.6596 22.9744C82.6167 22.8903 82.5738 22.799 82.5316 22.7077C82.5069 22.6543 82.4822 22.6041 82.4569 22.5487C82.3893 22.3948 82.3211 22.2338 82.2529 22.0591L73.8207 0.389893H71.7655L63.3866 22.0591C63.3216 22.224 63.2579 22.3772 63.193 22.5239C63.1715 22.5721 63.1507 22.6178 63.13 22.6641C63.0858 22.7605 63.0409 22.8531 62.9968 22.9418C62.9727 22.99 62.948 23.0389 62.924 23.0852C62.8649 23.196 62.8057 23.301 62.7453 23.3987C62.7128 23.4522 62.679 23.4998 62.6459 23.5493C62.6147 23.5963 62.5829 23.6426 62.551 23.6862C62.5121 23.7397 62.4724 23.7918 62.4321 23.8407C62.4068 23.8714 62.3815 23.8994 62.3561 23.9281C62.2593 24.0383 62.1593 24.1386 62.0553 24.2254C62.0527 24.228 62.0494 24.2306 62.0468 24.2332C61.3438 24.8153 60.4583 24.9001 59.0951 24.9085H59.0938C58.7443 24.9105 58.3648 24.9085 57.9477 24.9085H22.6516V26.1667H67.8672V24.9085L64.8303 24.0024L67.426 17.0779H75.2644L77.76 24.5063L76.2065 24.9085V26.1667H124.359V24.9085H87.6911H87.6905ZM68.2401 14.8654H68.2304L71.5973 5.9317L74.586 14.8654H68.2401Z" fill="#1D1D1B"/>
</g>
</g>
<defs>
<clipPath id="clip0_1_4">
<rect width="148" height="40" fill="white"/>
</clipPath>
</defs>
</svg>
