<svg width="78" height="78" viewBox="0 0 78 78" fill="none" xmlns="http://www.w3.org/2000/svg">
<g id="fi_12960332" clip-path="url(#clip0_1_233)">
<g id="Group">
<g id="Group_2">
<path id="Vector" d="M0 15.9961C0 24.8163 7.17585 31.9922 15.9961 31.9922L20.5664 16.3008L15.9961 0C7.17585 0 0 7.17585 0 15.9961Z" fill="#FF6379"/>
<path id="Vector_2" d="M15.9961 0V31.9922C24.8163 31.9922 31.9922 24.8163 31.9922 15.9961C31.9922 7.17585 24.8163 0 15.9961 0Z" fill="#FF415B"/>
<path id="Vector_3" d="M4.57031 15.9961C4.57031 22.2963 9.69592 27.4219 15.9961 27.4219L19.043 15.9961L15.9961 4.57031C9.69592 4.57031 4.57031 9.69592 4.57031 15.9961Z" fill="#EEEEF0"/>
<path id="Vector_4" d="M15.9961 4.57031V27.4219C22.2963 27.4219 27.4219 22.2963 27.4219 15.9961C27.4219 9.69592 22.2963 4.57031 15.9961 4.57031Z" fill="#DBE1E8"/>
</g>
<path id="Vector_5" d="M39 53.625H31.1755L19.6574 42.1069H12.1168V49.6475L26.0508 63.5815V75.7149C26.0508 76.9769 27.0739 78 28.3359 78H39L42.6563 65.8125L39 53.625Z" fill="#8FE26A"/>
<path id="Vector_6" d="M58.3426 42.1068L46.8245 53.625H39V78H49.6641C50.9261 78 51.9492 76.9769 51.9492 75.7148V63.5814L65.8832 49.6475V42.1069H58.3426V42.1068Z" fill="#00CB76"/>
<path id="Vector_7" d="M7.80777 37.7979C5.72554 39.8801 5.72554 43.2562 7.80777 45.3384L12.1167 49.6475L19.6572 42.1069L15.3483 37.7979C13.2662 35.7156 9.89016 35.7156 7.80777 37.7979Z" fill="#FFDDCE"/>
<path id="Vector_8" d="M62.6515 37.7978L58.3426 42.1067L65.8832 49.6473L70.1921 45.3382C72.2743 43.256 72.2743 39.8801 70.1921 37.7977C68.1098 35.7156 64.7337 35.7156 62.6515 37.7978Z" fill="#FFCCBD"/>
<path id="Vector_9" d="M15.9961 9.14062C14.7341 9.14062 13.7109 10.1638 13.7109 11.4258V13.7109H11.4258C10.1638 13.7109 9.14062 14.7341 9.14062 15.9961C9.14062 17.2581 10.1638 18.2812 11.4258 18.2812H15.9961L17.2148 13.7109L15.9961 9.14062Z" fill="#A160E4"/>
<path id="Vector_10" d="M18.2812 15.9961V11.4258C18.2812 10.1638 17.2581 9.14062 15.9961 9.14062V18.2812C17.2581 18.2812 18.2812 17.2581 18.2812 15.9961Z" fill="#5F5ACE"/>
<path id="Vector_11" d="M39 36.8672C33.9599 36.8672 29.8594 40.9677 29.8594 46.0078C29.8594 51.048 33.9599 55.1484 39 55.1484L41.4375 46.0078L39 36.8672Z" fill="#FFDDCE"/>
<path id="Vector_12" d="M39 55.1484C44.0401 55.1484 48.1406 51.048 48.1406 46.0078C48.1406 40.9677 44.0401 36.8672 39 36.8672V55.1484Z" fill="#FFCCBD"/>
<g id="Group_3">
<path id="Vector_13" d="M46.0078 15.9961C46.0078 24.8163 53.1837 31.9922 62.0039 31.9922L66.5742 16.3008L62.0039 0C53.1837 0 46.0078 7.17585 46.0078 15.9961Z" fill="#FF6379"/>
<path id="Vector_14" d="M62.0039 0V31.9922C70.8242 31.9922 78 24.8163 78 15.9961C78 7.17585 70.8242 0 62.0039 0Z" fill="#FF415B"/>
<path id="Vector_15" d="M50.5781 15.9961C50.5781 22.2963 55.7037 27.4219 62.0039 27.4219L65.0508 15.9961L62.0039 4.57031C55.7037 4.57031 50.5781 9.69592 50.5781 15.9961Z" fill="#EEEEF0"/>
<path id="Vector_16" d="M62.0039 4.57031V27.4219C68.3041 27.4219 73.4297 22.2963 73.4297 15.9961C73.4297 9.69592 68.3041 4.57031 62.0039 4.57031Z" fill="#DBE1E8"/>
<path id="Vector_17" d="M62.0039 9.14062C60.7419 9.14062 59.7188 10.1638 59.7188 11.4258V15.3838L57.7398 18.8116C57.1088 19.9045 57.4833 21.3021 58.5762 21.9331C59.6691 22.5641 61.0667 22.1896 61.6977 21.0967L62.0039 20.5664L63.2227 14.8535L62.0039 9.14062Z" fill="#A160E4"/>
<path id="Vector_18" d="M64.2891 15.9961V11.4258C64.2891 10.1638 63.2659 9.14062 62.0039 9.14062V20.5664L63.9829 17.1387C64.1835 16.7912 64.2891 16.3972 64.2891 15.9961Z" fill="#5F5ACE"/>
</g>
</g>
</g>
<defs>
<clipPath id="clip0_1_233">
<rect width="78" height="78" fill="white"/>
</clipPath>
</defs>
</svg>
