<svg width="78" height="78" viewBox="0 0 78 78" fill="none" xmlns="http://www.w3.org/2000/svg">
<g id="fi_9295588" clip-path="url(#clip0_1_215)">
<g id="Group">
<path id="Vector" d="M21.4957 70.958V75.716C21.4957 76.9774 22.5188 78 23.7809 78H39L44.4135 66.0943L39 55.4842C39 55.4842 37.4629 53.5139 36.7148 53.6114C32.795 54.1215 29.282 55.9287 26.6221 58.5873C23.4548 61.7525 21.4957 66.1269 21.4957 70.958Z" fill="#6AABFF"/>
<path id="Vector_2" d="M56.5043 70.958V75.716C56.5043 76.9774 55.4812 78 54.2191 78H39V55.4842C39 55.4842 40.5371 53.5139 41.2852 53.6114C45.205 54.1215 48.718 55.9287 51.3779 58.5873C54.5452 61.7525 56.5043 66.1269 56.5043 70.958Z" fill="#5980FF"/>
<g id="Group_2">
<path id="Vector_3" d="M77.3449 25.325L73.2377 29.5L74.1046 35.2903C74.231 36.1323 73.8776 36.9758 73.1875 37.4767C72.7898 37.7645 72.3191 37.9121 71.8453 37.9121C71.4965 37.9121 71.1476 37.8329 70.8246 37.6716L65.584 35.0589L60.3418 37.6716C59.5786 38.0523 58.6676 37.9761 57.979 37.4767C57.2889 36.9758 56.9354 36.1323 57.0619 35.2903L57.9287 29.5L53.8215 25.325C53.2243 24.7175 53.0156 23.8284 53.2777 23.0184C53.5412 22.2084 54.2344 21.613 55.0753 21.4715L60.8522 20.5061L63.5563 15.314C63.9493 14.5573 64.7309 14.0839 65.584 14.0839C66.4356 14.0839 67.2171 14.5573 67.6102 15.314L70.3143 20.5061L76.0911 21.4715C76.9321 21.613 77.6252 22.2084 77.8888 23.0184C78.1508 23.8282 77.9421 24.7175 77.3449 25.325Z" fill="#FF9922"/>
</g>
<g id="Group_3">
<path id="Vector_4" d="M24.1785 25.325L20.0713 29.5L20.9381 35.2903C21.0646 36.1323 20.7111 36.9758 20.021 37.4767C19.6234 37.7645 19.1527 37.9121 18.6789 37.9121C18.33 37.9121 17.9811 37.8329 17.6582 37.6716L12.416 35.0589L7.17539 37.6716C6.41215 38.0523 5.50113 37.9761 4.81254 37.4767C4.12242 36.9758 3.76898 36.1323 3.89543 35.2903L4.76227 29.5L0.655079 25.325C0.057891 24.7175 -0.15082 23.8284 0.111211 23.0184C0.374766 22.2084 1.06793 21.613 1.90887 21.4715L7.68574 20.5061L10.3898 15.314C10.7829 14.5573 11.5644 14.0839 12.416 14.0839C13.2691 14.0839 14.0507 14.5573 14.4437 15.314L17.1478 20.5061L22.9247 21.4715C23.7656 21.613 24.4588 22.2084 24.7223 23.0184C24.9844 23.8282 24.7757 24.7175 24.1785 25.325Z" fill="#FFBB17"/>
</g>
<g id="Group_4">
<path id="Vector_5" d="M39 0L47.3789 11.9594L39 22.1229L33.313 24.9579C32.5498 25.3386 31.6387 25.2624 30.9502 24.763C30.26 24.2621 29.9066 23.4186 30.033 22.5766L30.973 16.2944L26.5185 11.7647C25.9198 11.1572 25.7111 10.268 25.9746 9.45811C26.2382 8.64825 26.9298 8.05122 27.7707 7.91121L34.0397 6.8637L36.9723 1.23018C37.3669 0.473484 38.1484 0 39 0Z" fill="#FFBB17"/>
</g>
<path id="Vector_6" d="M39 36.3012L44.4135 45.2339L39 53.4636C33.0205 53.4636 28.1729 48.6188 28.1729 42.6427C28.1729 40.8734 28.598 39.2047 29.349 37.7308C31.852 40.1366 39 36.3012 39 36.3012Z" fill="#FFCCBD"/>
<path id="Vector_7" d="M49.8271 42.6427C49.8271 48.6188 44.9795 53.4636 39 53.4636V36.3012C39 36.3012 46.148 40.1366 48.651 37.731C49.402 39.2047 49.8271 40.8735 49.8271 42.6427Z" fill="#FFBDA9"/>
<path id="Vector_8" d="M39 31.8219L43.0636 36.3013L39 41.6165C35.2523 41.6165 31.852 40.1367 29.349 37.731C31.1421 34.223 34.7907 31.8219 39 31.8219Z" fill="#8C4D4D"/>
<path id="Vector_9" d="M48.651 37.731C46.148 40.1366 42.7477 41.6165 39 41.6165V31.8217C43.2093 31.8219 46.8579 34.223 48.651 37.731Z" fill="#733333"/>
<g id="Group_5">
<path id="Vector_10" d="M39 53.4637L40.4598 57.7858L39 63.6436C37.7386 63.6436 36.7148 62.6205 36.7148 61.3598V53.6115C37.4629 53.514 38.2261 53.4637 39 53.4637Z" fill="#E6F2FF"/>
</g>
<path id="Vector_11" d="M41.2852 53.6115V61.3598C41.2852 62.6205 40.2614 63.6436 39 63.6436V53.4637C39.7739 53.4637 40.5371 53.514 41.2852 53.6115Z" fill="#CCE6FF"/>
<path id="Vector_12" d="M51.4815 11.7649L47.027 16.2945L47.967 22.5767C48.0934 23.4187 47.74 24.2623 47.0498 24.7632C46.6522 25.0509 46.1815 25.1986 45.7062 25.1986C45.3588 25.1986 45.01 25.1194 44.687 24.958L39 22.1231V0C39.8516 0 40.6331 0.473484 41.0277 1.23018L43.9603 6.8637L50.2293 7.91121C51.0702 8.05137 51.7618 8.6481 52.0254 9.45811C52.2889 10.2681 52.0802 11.1575 51.4815 11.7649Z" fill="#FF9922"/>
</g>
</g>
<defs>
<clipPath id="clip0_1_215">
<rect width="78" height="78" fill="white"/>
</clipPath>
</defs>
</svg>
