<svg width="78" height="78" viewBox="0 0 78 78" fill="none" xmlns="http://www.w3.org/2000/svg">
<g id="fi_681392" clip-path="url(#clip0_1_255)">
<path id="Vector" d="M66.7512 41.6145H58.8336C52.6303 41.6145 47.55 46.6729 47.55 52.8762V65.2938C47.55 69.0157 50.6116 72.0645 54.3337 72.0645H71.2512C74.9732 72.0645 78 69.0157 78 65.2938V52.8762C78 46.6728 72.9545 41.6145 66.7512 41.6145Z" fill="#FB4F56"/>
<path id="Vector_2" d="M62.7924 41.6144H58.8336C52.6303 41.6144 47.55 46.6728 47.55 52.8761V65.2936C47.55 69.0155 50.6116 72.0644 54.3337 72.0644H62.7924V41.6144Z" fill="#FC6067"/>
<path id="Vector_3" d="M62.7924 18.5459C57.2132 18.5459 52.6742 23.085 52.6742 28.6641C52.6742 34.2434 57.2132 38.7824 62.7924 38.7824C68.3717 38.7824 72.9107 34.2434 72.9107 28.6641C72.9107 23.0851 68.3717 18.5459 62.7924 18.5459Z" fill="#FB4F56"/>
<path id="Vector_4" d="M62.7924 18.5459C57.2132 18.5459 52.6742 23.085 52.6742 28.6641C52.6742 34.2434 57.2132 38.7824 62.7924 38.7824V18.5459Z" fill="#FC6067"/>
<path id="Vector_5" d="M19.2011 41.6145H11.2836C5.08036 41.6145 0 46.6728 0 52.8761V65.2936C0 69.0155 3.06165 72.0644 6.78371 72.0644H23.7012C27.4232 72.0644 30.45 69.0155 30.45 65.2936V52.8761C30.45 46.6728 25.4045 41.6145 19.2011 41.6145Z" fill="#41E37A"/>
<path id="Vector_6" d="M15.2424 41.6144H11.2836C5.08036 41.6144 0 46.6728 0 52.8761V65.2936C0 69.0155 3.06165 72.0644 6.78371 72.0644H15.2424V41.6144Z" fill="#59E78B"/>
<path id="Vector_7" d="M45.8893 35.7651H32.1107C25.9074 35.7651 20.8607 40.8118 20.8607 47.0151V69.7937C20.8607 71.0364 21.8682 72.0437 23.1107 72.0437H54.8893C56.132 72.0437 57.1393 71.0364 57.1393 69.7937V47.0151C57.1393 40.8118 52.0926 35.7651 45.8893 35.7651Z" fill="#4FA4FB"/>
<path id="Vector_8" d="M39.076 35.7651H32.1107C25.9074 35.7651 20.8607 40.8118 20.8607 47.0151V69.7937C20.8607 71.0364 21.8682 72.0437 23.1107 72.0437H39.076V35.7651Z" fill="#68B1FC"/>
<path id="Vector_9" d="M39 5.9353C31.5397 5.9353 25.4703 12.0047 25.4703 19.465C25.4703 26.9252 31.5396 32.9946 39 32.9946C46.4604 32.9946 52.5296 26.9252 52.5296 19.465C52.5296 12.0047 46.4603 5.9353 39 5.9353Z" fill="#4FA4FB"/>
<path id="Vector_10" d="M39 5.9353C31.5397 5.9353 25.4703 12.0047 25.4703 19.465C25.4703 26.9252 31.5396 32.9946 39 32.9946V5.9353Z" fill="#68B1FC"/>
<path id="Vector_11" d="M15.2425 18.5459C9.66317 18.5459 5.12424 23.085 5.12424 28.6641C5.12424 34.2434 9.66317 38.7824 15.2425 38.7824C20.8217 38.7824 25.3607 34.2434 25.3607 28.6641C25.3607 23.0851 20.8217 18.5459 15.2425 18.5459Z" fill="#41E37A"/>
<path id="Vector_12" d="M15.2425 18.5459C9.66317 18.5459 5.12424 23.085 5.12424 28.6641C5.12424 34.2434 9.66317 38.7824 15.2425 38.7824V18.5459Z" fill="#59E78B"/>
</g>
<defs>
<clipPath id="clip0_1_255">
<rect width="78" height="78" fill="white"/>
</clipPath>
</defs>
</svg>
